<mxfile host="app.diagrams.net" modified="2023-12-18T13:18:22.235Z" agent="Mozilla/5.0 (Windows NT 10.0; Win64; x64) AppleWebKit/537.36 (KHTML, like Gecko) Chrome/120.0.0.0 Safari/537.36" etag="B37ggjLh-ozieoLzjXIZ" version="22.1.11" type="github">
  <diagram name="Page-1" id="74e2e168-ea6b-b213-b513-2b3c1d86103e">
    <mxGraphModel dx="1235" dy="655" grid="1" gridSize="10" guides="1" tooltips="1" connect="1" arrows="1" fold="1" page="1" pageScale="1" pageWidth="1100" pageHeight="850" background="none" math="0" shadow="0">
      <root>
        <mxCell id="0" />
        <mxCell id="1" parent="0" />
        <mxCell id="SSFar1ZfGdF0vFPYDZeS-47" style="edgeStyle=orthogonalEdgeStyle;rounded=0;orthogonalLoop=1;jettySize=auto;html=1;entryX=0.5;entryY=0;entryDx=0;entryDy=0;" edge="1" parent="1" source="SSFar1ZfGdF0vFPYDZeS-5" target="SSFar1ZfGdF0vFPYDZeS-46">
          <mxGeometry relative="1" as="geometry" />
        </mxCell>
        <mxCell id="SSFar1ZfGdF0vFPYDZeS-5" value="预测系统业务流程(小程序端)" style="rounded=1;whiteSpace=wrap;html=1;fontStyle=1;fontSize=18;" vertex="1" parent="1">
          <mxGeometry x="470" y="50" width="160" height="60" as="geometry" />
        </mxCell>
        <mxCell id="SSFar1ZfGdF0vFPYDZeS-27" value="" style="edgeStyle=orthogonalEdgeStyle;rounded=0;orthogonalLoop=1;jettySize=auto;html=1;" edge="1" parent="1" source="SSFar1ZfGdF0vFPYDZeS-23" target="SSFar1ZfGdF0vFPYDZeS-26">
          <mxGeometry relative="1" as="geometry" />
        </mxCell>
        <mxCell id="SSFar1ZfGdF0vFPYDZeS-23" value="用户登录" style="rounded=0;whiteSpace=wrap;html=1;" vertex="1" parent="1">
          <mxGeometry x="490" y="290" width="120" height="60" as="geometry" />
        </mxCell>
        <mxCell id="SSFar1ZfGdF0vFPYDZeS-43" style="edgeStyle=orthogonalEdgeStyle;rounded=0;orthogonalLoop=1;jettySize=auto;html=1;entryX=0.5;entryY=0;entryDx=0;entryDy=0;" edge="1" parent="1" source="SSFar1ZfGdF0vFPYDZeS-26" target="SSFar1ZfGdF0vFPYDZeS-28">
          <mxGeometry relative="1" as="geometry" />
        </mxCell>
        <mxCell id="SSFar1ZfGdF0vFPYDZeS-50" style="edgeStyle=orthogonalEdgeStyle;rounded=0;orthogonalLoop=1;jettySize=auto;html=1;entryX=0.5;entryY=0;entryDx=0;entryDy=0;exitX=0.5;exitY=1;exitDx=0;exitDy=0;" edge="1" parent="1" source="SSFar1ZfGdF0vFPYDZeS-26" target="SSFar1ZfGdF0vFPYDZeS-49">
          <mxGeometry relative="1" as="geometry" />
        </mxCell>
        <mxCell id="SSFar1ZfGdF0vFPYDZeS-51" style="edgeStyle=orthogonalEdgeStyle;rounded=0;orthogonalLoop=1;jettySize=auto;html=1;entryX=0.5;entryY=0;entryDx=0;entryDy=0;exitX=0.5;exitY=1;exitDx=0;exitDy=0;" edge="1" parent="1" source="SSFar1ZfGdF0vFPYDZeS-26" target="SSFar1ZfGdF0vFPYDZeS-36">
          <mxGeometry relative="1" as="geometry" />
        </mxCell>
        <mxCell id="SSFar1ZfGdF0vFPYDZeS-26" value="填写个人信息" style="rounded=0;whiteSpace=wrap;html=1;" vertex="1" parent="1">
          <mxGeometry x="490" y="410" width="120" height="60" as="geometry" />
        </mxCell>
        <mxCell id="SSFar1ZfGdF0vFPYDZeS-28" value="首页" style="rounded=0;whiteSpace=wrap;html=1;" vertex="1" parent="1">
          <mxGeometry x="490" y="530" width="120" height="60" as="geometry" />
        </mxCell>
        <mxCell id="SSFar1ZfGdF0vFPYDZeS-53" value="" style="edgeStyle=orthogonalEdgeStyle;rounded=0;orthogonalLoop=1;jettySize=auto;html=1;" edge="1" parent="1" source="SSFar1ZfGdF0vFPYDZeS-36" target="SSFar1ZfGdF0vFPYDZeS-52">
          <mxGeometry relative="1" as="geometry" />
        </mxCell>
        <mxCell id="SSFar1ZfGdF0vFPYDZeS-58" value="" style="edgeStyle=orthogonalEdgeStyle;rounded=0;orthogonalLoop=1;jettySize=auto;html=1;" edge="1" parent="1" source="SSFar1ZfGdF0vFPYDZeS-36" target="SSFar1ZfGdF0vFPYDZeS-57">
          <mxGeometry relative="1" as="geometry" />
        </mxCell>
        <mxCell id="SSFar1ZfGdF0vFPYDZeS-36" value="饮食" style="rounded=0;whiteSpace=wrap;html=1;" vertex="1" parent="1">
          <mxGeometry x="300" y="530" width="120" height="60" as="geometry" />
        </mxCell>
        <mxCell id="SSFar1ZfGdF0vFPYDZeS-48" style="edgeStyle=orthogonalEdgeStyle;rounded=0;orthogonalLoop=1;jettySize=auto;html=1;entryX=0.5;entryY=0;entryDx=0;entryDy=0;" edge="1" parent="1" source="SSFar1ZfGdF0vFPYDZeS-46" target="SSFar1ZfGdF0vFPYDZeS-23">
          <mxGeometry relative="1" as="geometry" />
        </mxCell>
        <mxCell id="SSFar1ZfGdF0vFPYDZeS-46" value="用户注册" style="rounded=0;whiteSpace=wrap;html=1;" vertex="1" parent="1">
          <mxGeometry x="490" y="170" width="120" height="60" as="geometry" />
        </mxCell>
        <mxCell id="SSFar1ZfGdF0vFPYDZeS-69" value="" style="edgeStyle=orthogonalEdgeStyle;rounded=0;orthogonalLoop=1;jettySize=auto;html=1;" edge="1" parent="1" source="SSFar1ZfGdF0vFPYDZeS-49" target="SSFar1ZfGdF0vFPYDZeS-68">
          <mxGeometry relative="1" as="geometry" />
        </mxCell>
        <mxCell id="SSFar1ZfGdF0vFPYDZeS-49" value="运动" style="rounded=0;whiteSpace=wrap;html=1;" vertex="1" parent="1">
          <mxGeometry x="810" y="530" width="120" height="60" as="geometry" />
        </mxCell>
        <mxCell id="SSFar1ZfGdF0vFPYDZeS-52" value="GET&lt;br&gt;显示营养摄入趋势&lt;br&gt;userId" style="rounded=0;whiteSpace=wrap;html=1;" vertex="1" parent="1">
          <mxGeometry x="50" y="650" width="120" height="60" as="geometry" />
        </mxCell>
        <mxCell id="SSFar1ZfGdF0vFPYDZeS-55" style="edgeStyle=orthogonalEdgeStyle;rounded=0;orthogonalLoop=1;jettySize=auto;html=1;entryX=0.5;entryY=1;entryDx=0;entryDy=0;" edge="1" parent="1" source="SSFar1ZfGdF0vFPYDZeS-54" target="SSFar1ZfGdF0vFPYDZeS-52">
          <mxGeometry relative="1" as="geometry" />
        </mxCell>
        <mxCell id="SSFar1ZfGdF0vFPYDZeS-54" value="后端获取所有营养摄入" style="rounded=0;whiteSpace=wrap;html=1;" vertex="1" parent="1">
          <mxGeometry x="50" y="1010" width="120" height="60" as="geometry" />
        </mxCell>
        <mxCell id="SSFar1ZfGdF0vFPYDZeS-57" value="GET&lt;br&gt;显示当日能量摄入&lt;br&gt;userId，recordsTime" style="rounded=0;whiteSpace=wrap;html=1;" vertex="1" parent="1">
          <mxGeometry x="210" y="650" width="120" height="60" as="geometry" />
        </mxCell>
        <mxCell id="SSFar1ZfGdF0vFPYDZeS-64" style="edgeStyle=orthogonalEdgeStyle;rounded=0;orthogonalLoop=1;jettySize=auto;html=1;" edge="1" parent="1" source="SSFar1ZfGdF0vFPYDZeS-63" target="SSFar1ZfGdF0vFPYDZeS-57">
          <mxGeometry relative="1" as="geometry" />
        </mxCell>
        <mxCell id="SSFar1ZfGdF0vFPYDZeS-63" value="后端获取当日的营养摄入" style="rounded=0;whiteSpace=wrap;html=1;" vertex="1" parent="1">
          <mxGeometry x="210" y="1010" width="120" height="60" as="geometry" />
        </mxCell>
        <mxCell id="SSFar1ZfGdF0vFPYDZeS-66" style="edgeStyle=orthogonalEdgeStyle;rounded=0;orthogonalLoop=1;jettySize=auto;html=1;exitX=0.5;exitY=0;exitDx=0;exitDy=0;entryX=0.5;entryY=1;entryDx=0;entryDy=0;curved=1;" edge="1" parent="1" source="SSFar1ZfGdF0vFPYDZeS-65" target="SSFar1ZfGdF0vFPYDZeS-54">
          <mxGeometry relative="1" as="geometry" />
        </mxCell>
        <mxCell id="SSFar1ZfGdF0vFPYDZeS-67" style="edgeStyle=orthogonalEdgeStyle;rounded=0;orthogonalLoop=1;jettySize=auto;html=1;exitX=0.5;exitY=0;exitDx=0;exitDy=0;curved=1;" edge="1" parent="1" source="SSFar1ZfGdF0vFPYDZeS-65" target="SSFar1ZfGdF0vFPYDZeS-63">
          <mxGeometry relative="1" as="geometry" />
        </mxCell>
        <mxCell id="SSFar1ZfGdF0vFPYDZeS-65" value="营养摄入表" style="shape=datastore;whiteSpace=wrap;html=1;" vertex="1" parent="1">
          <mxGeometry x="160" y="1130" width="60" height="60" as="geometry" />
        </mxCell>
        <mxCell id="SSFar1ZfGdF0vFPYDZeS-78" value="" style="edgeStyle=orthogonalEdgeStyle;rounded=0;orthogonalLoop=1;jettySize=auto;html=1;" edge="1" parent="1" source="SSFar1ZfGdF0vFPYDZeS-68" target="SSFar1ZfGdF0vFPYDZeS-77">
          <mxGeometry relative="1" as="geometry" />
        </mxCell>
        <mxCell id="SSFar1ZfGdF0vFPYDZeS-86" style="edgeStyle=orthogonalEdgeStyle;rounded=0;orthogonalLoop=1;jettySize=auto;html=1;entryX=0.5;entryY=0;entryDx=0;entryDy=0;" edge="1" parent="1" source="SSFar1ZfGdF0vFPYDZeS-68" target="SSFar1ZfGdF0vFPYDZeS-81">
          <mxGeometry relative="1" as="geometry" />
        </mxCell>
        <mxCell id="SSFar1ZfGdF0vFPYDZeS-68" value="POST&lt;br&gt;录入运动" style="rounded=0;whiteSpace=wrap;html=1;" vertex="1" parent="1">
          <mxGeometry x="810" y="650" width="120" height="60" as="geometry" />
        </mxCell>
        <mxCell id="SSFar1ZfGdF0vFPYDZeS-72" style="edgeStyle=orthogonalEdgeStyle;rounded=0;orthogonalLoop=1;jettySize=auto;html=1;entryX=1;entryY=0.5;entryDx=0;entryDy=0;" edge="1" parent="1" source="SSFar1ZfGdF0vFPYDZeS-70" target="SSFar1ZfGdF0vFPYDZeS-68">
          <mxGeometry relative="1" as="geometry" />
        </mxCell>
        <mxCell id="SSFar1ZfGdF0vFPYDZeS-70" value="GET&lt;br&gt;获取运动种类" style="rounded=0;whiteSpace=wrap;html=1;" vertex="1" parent="1">
          <mxGeometry x="980" y="650" width="120" height="60" as="geometry" />
        </mxCell>
        <mxCell id="SSFar1ZfGdF0vFPYDZeS-74" style="edgeStyle=orthogonalEdgeStyle;rounded=0;orthogonalLoop=1;jettySize=auto;html=1;entryX=0.5;entryY=1;entryDx=0;entryDy=0;" edge="1" parent="1" source="SSFar1ZfGdF0vFPYDZeS-73" target="SSFar1ZfGdF0vFPYDZeS-70">
          <mxGeometry relative="1" as="geometry" />
        </mxCell>
        <mxCell id="SSFar1ZfGdF0vFPYDZeS-73" value="后端获取所有运动种类" style="rounded=0;whiteSpace=wrap;html=1;" vertex="1" parent="1">
          <mxGeometry x="980" y="1010" width="120" height="60" as="geometry" />
        </mxCell>
        <mxCell id="SSFar1ZfGdF0vFPYDZeS-76" style="edgeStyle=orthogonalEdgeStyle;rounded=0;orthogonalLoop=1;jettySize=auto;html=1;exitX=0.5;exitY=0;exitDx=0;exitDy=0;entryX=0.5;entryY=1;entryDx=0;entryDy=0;" edge="1" parent="1" source="SSFar1ZfGdF0vFPYDZeS-75" target="SSFar1ZfGdF0vFPYDZeS-73">
          <mxGeometry relative="1" as="geometry" />
        </mxCell>
        <mxCell id="SSFar1ZfGdF0vFPYDZeS-75" value="运动种类表" style="shape=datastore;whiteSpace=wrap;html=1;" vertex="1" parent="1">
          <mxGeometry x="1010" y="1130" width="60" height="60" as="geometry" />
        </mxCell>
        <mxCell id="SSFar1ZfGdF0vFPYDZeS-77" value="后端存入运动记录" style="rounded=0;whiteSpace=wrap;html=1;" vertex="1" parent="1">
          <mxGeometry x="810" y="1010" width="120" height="60" as="geometry" />
        </mxCell>
        <mxCell id="SSFar1ZfGdF0vFPYDZeS-80" style="edgeStyle=orthogonalEdgeStyle;rounded=0;orthogonalLoop=1;jettySize=auto;html=1;entryX=0.5;entryY=1;entryDx=0;entryDy=0;" edge="1" parent="1" source="SSFar1ZfGdF0vFPYDZeS-79" target="SSFar1ZfGdF0vFPYDZeS-77">
          <mxGeometry relative="1" as="geometry" />
        </mxCell>
        <mxCell id="SSFar1ZfGdF0vFPYDZeS-79" value="运动记录表" style="shape=datastore;whiteSpace=wrap;html=1;" vertex="1" parent="1">
          <mxGeometry x="840" y="1130" width="60" height="60" as="geometry" />
        </mxCell>
        <mxCell id="SSFar1ZfGdF0vFPYDZeS-87" style="edgeStyle=orthogonalEdgeStyle;rounded=0;orthogonalLoop=1;jettySize=auto;html=1;entryX=1;entryY=0.5;entryDx=0;entryDy=0;" edge="1" parent="1" source="SSFar1ZfGdF0vFPYDZeS-81" target="SSFar1ZfGdF0vFPYDZeS-82">
          <mxGeometry relative="1" as="geometry" />
        </mxCell>
        <mxCell id="SSFar1ZfGdF0vFPYDZeS-81" value="后端根据运动种类表计算消耗能量" style="rounded=0;whiteSpace=wrap;html=1;" vertex="1" parent="1">
          <mxGeometry x="690" y="770" width="120" height="60" as="geometry" />
        </mxCell>
        <mxCell id="SSFar1ZfGdF0vFPYDZeS-89" value="" style="edgeStyle=orthogonalEdgeStyle;rounded=0;orthogonalLoop=1;jettySize=auto;html=1;" edge="1" parent="1" source="SSFar1ZfGdF0vFPYDZeS-82" target="SSFar1ZfGdF0vFPYDZeS-88">
          <mxGeometry relative="1" as="geometry" />
        </mxCell>
        <mxCell id="SSFar1ZfGdF0vFPYDZeS-82" value="判断是否&lt;br&gt;有当日能量消耗&lt;br&gt;记录" style="rhombus;whiteSpace=wrap;html=1;" vertex="1" parent="1">
          <mxGeometry x="520" y="767.5" width="120" height="65" as="geometry" />
        </mxCell>
        <mxCell id="SSFar1ZfGdF0vFPYDZeS-83" value="后端获取当日的能量消耗" style="rounded=0;whiteSpace=wrap;html=1;" vertex="1" parent="1">
          <mxGeometry x="470" y="1010" width="120" height="60" as="geometry" />
        </mxCell>
        <mxCell id="SSFar1ZfGdF0vFPYDZeS-85" style="edgeStyle=orthogonalEdgeStyle;rounded=0;orthogonalLoop=1;jettySize=auto;html=1;" edge="1" parent="1" source="SSFar1ZfGdF0vFPYDZeS-84" target="SSFar1ZfGdF0vFPYDZeS-83">
          <mxGeometry relative="1" as="geometry" />
        </mxCell>
        <mxCell id="SSFar1ZfGdF0vFPYDZeS-84" value="能量消耗表" style="shape=datastore;whiteSpace=wrap;html=1;" vertex="1" parent="1">
          <mxGeometry x="500" y="1130" width="60" height="60" as="geometry" />
        </mxCell>
        <mxCell id="SSFar1ZfGdF0vFPYDZeS-88" value="累加能量消耗" style="whiteSpace=wrap;html=1;" vertex="1" parent="1">
          <mxGeometry x="520" y="880" width="120" height="60" as="geometry" />
        </mxCell>
        <mxCell id="SSFar1ZfGdF0vFPYDZeS-90" value="有" style="text;html=1;strokeColor=none;fillColor=none;align=center;verticalAlign=middle;whiteSpace=wrap;rounded=0;" vertex="1" parent="1">
          <mxGeometry x="580" y="840" width="60" height="30" as="geometry" />
        </mxCell>
      </root>
    </mxGraphModel>
  </diagram>
</mxfile>
